<mxfile host="app.diagrams.net" modified="2020-09-29T22:37:10.344Z" agent="5.0 (Windows)" etag="8kkGLuvT8o7dpR8ToOJM" version="13.7.6" type="github">
  <diagram id="N4XQ_CXPnWO7x1Vv_Hcr" name="Page-1">
    <mxGraphModel dx="2131" dy="604" grid="1" gridSize="10" guides="1" tooltips="1" connect="1" arrows="1" fold="1" page="1" pageScale="1" pageWidth="900" pageHeight="800" math="0" shadow="0">
      <root>
        <mxCell id="0" />
        <mxCell id="1" parent="0" />
        <mxCell id="ycpoEHU6syWwGk231tpJ-1" value="" style="rounded=0;whiteSpace=wrap;html=1;fontSize=16;fontFamily=Times New Roman;fontStyle=0" parent="1" vertex="1">
          <mxGeometry x="-440" y="70" width="1180" height="450" as="geometry" />
        </mxCell>
        <mxCell id="ycpoEHU6syWwGk231tpJ-5" value="&lt;span style=&quot;font-size: 16px;&quot; lang=&quot;EN-US&quot;&gt;Game&lt;/span&gt;&lt;span style=&quot;font-size: 16px;&quot;&gt;&lt;span style=&quot;font-size: 16px;&quot; lang=&quot;EN-US&quot;&gt; &lt;/span&gt;&lt;/span&gt;&lt;span style=&quot;font-size: 16px;&quot; lang=&quot;EN-US&quot;&gt;Raden Arya Wiralodra : Babad Alas Dermayu&lt;/span&gt;" style="rounded=0;whiteSpace=wrap;html=1;fontSize=16;fontFamily=Times New Roman;fontStyle=0" parent="1" vertex="1">
          <mxGeometry x="215" y="90" width="150" height="60" as="geometry" />
        </mxCell>
        <mxCell id="ycpoEHU6syWwGk231tpJ-9" value="L01" style="rounded=0;whiteSpace=wrap;html=1;fontSize=16;fontFamily=Times New Roman;fontStyle=0" parent="1" vertex="1">
          <mxGeometry x="120" y="220" width="70" height="40" as="geometry" />
        </mxCell>
        <mxCell id="ycpoEHU6syWwGk231tpJ-12" value="T01=&#39;&lt;span style=&quot;font-size: 16px;&quot;&gt;&lt;span style=&quot;font-size: 16px;&quot; lang=&quot;EN-US&quot;&gt;R01+R02+R03+R04&amp;gt;=nilaiMax:3&lt;/span&gt;&lt;/span&gt;&#39;" style="rounded=0;whiteSpace=wrap;html=1;fontSize=16;fontFamily=Times New Roman;fontStyle=0" parent="1" vertex="1">
          <mxGeometry x="-390" y="290" width="296" height="40" as="geometry" />
        </mxCell>
        <mxCell id="ycpoEHU6syWwGk231tpJ-13" value="R02=&#39;15&#39;" style="ellipse;whiteSpace=wrap;html=1;aspect=fixed;fontSize=16;fontFamily=Times New Roman;fontStyle=0" parent="1" vertex="1">
          <mxGeometry x="-330" y="420" width="80" height="80" as="geometry" />
        </mxCell>
        <mxCell id="ycpoEHU6syWwGk231tpJ-14" value="&lt;div style=&quot;font-size: 16px;&quot;&gt;R03=&#39;10&#39;&lt;/div&gt;" style="ellipse;whiteSpace=wrap;html=1;aspect=fixed;fontSize=16;fontFamily=Times New Roman;fontStyle=0" parent="1" vertex="1">
          <mxGeometry x="-230" y="420" width="80" height="80" as="geometry" />
        </mxCell>
        <mxCell id="ycpoEHU6syWwGk231tpJ-15" value="R04=&#39;12&#39;" style="ellipse;whiteSpace=wrap;html=1;aspect=fixed;fontSize=16;fontFamily=Times New Roman;fontStyle=0" parent="1" vertex="1">
          <mxGeometry x="-140" y="360" width="80" height="80" as="geometry" />
        </mxCell>
        <mxCell id="ycpoEHU6syWwGk231tpJ-16" value="&lt;div style=&quot;font-size: 16px;&quot;&gt;R01=&#39;10&#39;&lt;/div&gt;" style="ellipse;whiteSpace=wrap;html=1;aspect=fixed;fontSize=16;fontFamily=Times New Roman;fontStyle=0" parent="1" vertex="1">
          <mxGeometry x="-420" y="360" width="80" height="80" as="geometry" />
        </mxCell>
        <mxCell id="ycpoEHU6syWwGk231tpJ-17" value="" style="endArrow=none;html=1;exitX=0.5;exitY=1;exitDx=0;exitDy=0;entryX=1;entryY=0;entryDx=0;entryDy=0;fontSize=16;fontFamily=Times New Roman;fontStyle=0" parent="1" source="ycpoEHU6syWwGk231tpJ-12" target="ycpoEHU6syWwGk231tpJ-16" edge="1">
          <mxGeometry width="50" height="50" relative="1" as="geometry">
            <mxPoint x="80" y="430" as="sourcePoint" />
            <mxPoint x="130" y="380" as="targetPoint" />
          </mxGeometry>
        </mxCell>
        <mxCell id="ycpoEHU6syWwGk231tpJ-18" value="" style="endArrow=none;html=1;exitX=0.5;exitY=1;exitDx=0;exitDy=0;entryX=0.5;entryY=0;entryDx=0;entryDy=0;fontSize=16;fontFamily=Times New Roman;fontStyle=0" parent="1" source="ycpoEHU6syWwGk231tpJ-12" target="ycpoEHU6syWwGk231tpJ-13" edge="1">
          <mxGeometry width="50" height="50" relative="1" as="geometry">
            <mxPoint x="-234.99999999999977" y="360" as="sourcePoint" />
            <mxPoint x="-351.71572875252855" y="371.7157287525288" as="targetPoint" />
          </mxGeometry>
        </mxCell>
        <mxCell id="ycpoEHU6syWwGk231tpJ-19" value="" style="endArrow=none;html=1;exitX=0.5;exitY=1;exitDx=0;exitDy=0;entryX=0.5;entryY=0;entryDx=0;entryDy=0;fontSize=16;fontFamily=Times New Roman;fontStyle=0" parent="1" source="ycpoEHU6syWwGk231tpJ-12" target="ycpoEHU6syWwGk231tpJ-14" edge="1">
          <mxGeometry width="50" height="50" relative="1" as="geometry">
            <mxPoint x="-234.99999999999977" y="360" as="sourcePoint" />
            <mxPoint x="-290" y="420" as="targetPoint" />
          </mxGeometry>
        </mxCell>
        <mxCell id="ycpoEHU6syWwGk231tpJ-20" value="" style="endArrow=none;html=1;exitX=0.5;exitY=1;exitDx=0;exitDy=0;entryX=0;entryY=0;entryDx=0;entryDy=0;fontSize=16;fontFamily=Times New Roman;fontStyle=0" parent="1" source="ycpoEHU6syWwGk231tpJ-12" target="ycpoEHU6syWwGk231tpJ-15" edge="1">
          <mxGeometry width="50" height="50" relative="1" as="geometry">
            <mxPoint x="-234.99999999999977" y="360" as="sourcePoint" />
            <mxPoint x="-213.67999999999984" y="420" as="targetPoint" />
          </mxGeometry>
        </mxCell>
        <mxCell id="ycpoEHU6syWwGk231tpJ-21" value="T02=&#39;&lt;span style=&quot;font-size: 16px;&quot;&gt;&lt;span style=&quot;font-size: 16px;&quot; lang=&quot;EN-US&quot;&gt;R01+R02+R03+R04&amp;gt;=&lt;/span&gt;&lt;/span&gt;&lt;span style=&quot;font-size: 16px;&quot;&gt;&lt;span style=&quot;font-size: 16px;&quot; lang=&quot;EN-US&quot;&gt;nilaiMax*2:3&lt;/span&gt;&lt;/span&gt;&#39;" style="rounded=0;whiteSpace=wrap;html=1;fontSize=16;fontFamily=Times New Roman;fontStyle=0" parent="1" vertex="1">
          <mxGeometry x="2.5" y="290" width="305" height="40" as="geometry" />
        </mxCell>
        <mxCell id="ycpoEHU6syWwGk231tpJ-22" value="R02=&#39;15&#39;" style="ellipse;whiteSpace=wrap;html=1;aspect=fixed;fontSize=16;fontFamily=Times New Roman;fontStyle=0" parent="1" vertex="1">
          <mxGeometry x="60" y="420" width="80" height="80" as="geometry" />
        </mxCell>
        <mxCell id="ycpoEHU6syWwGk231tpJ-23" value="&lt;div style=&quot;font-size: 16px;&quot;&gt;R03=&#39;15&#39;&lt;/div&gt;" style="ellipse;whiteSpace=wrap;html=1;aspect=fixed;fontSize=16;fontFamily=Times New Roman;fontStyle=0" parent="1" vertex="1">
          <mxGeometry x="160" y="420" width="80" height="80" as="geometry" />
        </mxCell>
        <mxCell id="ycpoEHU6syWwGk231tpJ-24" value="R04=&#39;24&#39;" style="ellipse;whiteSpace=wrap;html=1;aspect=fixed;fontSize=16;fontFamily=Times New Roman;fontStyle=0" parent="1" vertex="1">
          <mxGeometry x="250" y="360" width="80" height="80" as="geometry" />
        </mxCell>
        <mxCell id="ycpoEHU6syWwGk231tpJ-25" value="&lt;div style=&quot;font-size: 16px;&quot;&gt;R01=&#39;15&#39;&lt;/div&gt;" style="ellipse;whiteSpace=wrap;html=1;aspect=fixed;fontSize=16;fontFamily=Times New Roman;fontStyle=0" parent="1" vertex="1">
          <mxGeometry x="-30" y="360" width="80" height="80" as="geometry" />
        </mxCell>
        <mxCell id="ycpoEHU6syWwGk231tpJ-26" value="" style="endArrow=none;html=1;exitX=0.5;exitY=1;exitDx=0;exitDy=0;entryX=1;entryY=0;entryDx=0;entryDy=0;fontSize=16;fontFamily=Times New Roman;fontStyle=0" parent="1" source="ycpoEHU6syWwGk231tpJ-21" target="ycpoEHU6syWwGk231tpJ-25" edge="1">
          <mxGeometry width="50" height="50" relative="1" as="geometry">
            <mxPoint x="470" y="430" as="sourcePoint" />
            <mxPoint x="520" y="380" as="targetPoint" />
          </mxGeometry>
        </mxCell>
        <mxCell id="ycpoEHU6syWwGk231tpJ-27" value="" style="endArrow=none;html=1;entryX=0.5;entryY=0;entryDx=0;entryDy=0;fontSize=16;fontFamily=Times New Roman;fontStyle=0" parent="1" target="ycpoEHU6syWwGk231tpJ-22" edge="1">
          <mxGeometry width="50" height="50" relative="1" as="geometry">
            <mxPoint x="150" y="330" as="sourcePoint" />
            <mxPoint x="38.28427124747145" y="371.7157287525288" as="targetPoint" />
          </mxGeometry>
        </mxCell>
        <mxCell id="ycpoEHU6syWwGk231tpJ-28" value="" style="endArrow=none;html=1;exitX=0.5;exitY=1;exitDx=0;exitDy=0;entryX=0.5;entryY=0;entryDx=0;entryDy=0;fontSize=16;fontFamily=Times New Roman;fontStyle=0" parent="1" source="ycpoEHU6syWwGk231tpJ-21" target="ycpoEHU6syWwGk231tpJ-23" edge="1">
          <mxGeometry width="50" height="50" relative="1" as="geometry">
            <mxPoint x="155" y="360" as="sourcePoint" />
            <mxPoint x="100" y="420" as="targetPoint" />
          </mxGeometry>
        </mxCell>
        <mxCell id="ycpoEHU6syWwGk231tpJ-29" value="" style="endArrow=none;html=1;entryX=0;entryY=0;entryDx=0;entryDy=0;fontSize=16;exitX=0.5;exitY=1;exitDx=0;exitDy=0;fontFamily=Times New Roman;fontStyle=0" parent="1" source="ycpoEHU6syWwGk231tpJ-21" target="ycpoEHU6syWwGk231tpJ-24" edge="1">
          <mxGeometry width="50" height="50" relative="1" as="geometry">
            <mxPoint x="150" y="340" as="sourcePoint" />
            <mxPoint x="176.32000000000016" y="420" as="targetPoint" />
          </mxGeometry>
        </mxCell>
        <mxCell id="ycpoEHU6syWwGk231tpJ-30" value="&lt;div style=&quot;font-size: 16px;&quot;&gt;T03=&#39;&lt;span style=&quot;font-size: 16px;&quot;&gt;&lt;span style=&quot;font-size: 16px;&quot; lang=&quot;EN-US&quot;&gt;R01+R02+R03+R04&amp;gt;=&lt;/span&gt;&lt;/span&gt;&lt;span style=&quot;font-size: 16px;&quot;&gt;&lt;span style=&quot;font-size: 16px;&quot; lang=&quot;EN-US&quot;&gt;nilaiMax&lt;/span&gt;&lt;/span&gt;&#39;&lt;/div&gt;" style="rounded=0;whiteSpace=wrap;html=1;fontSize=16;fontFamily=Times New Roman;fontStyle=0" parent="1" vertex="1">
          <mxGeometry x="360" y="290" width="284.5" height="40" as="geometry" />
        </mxCell>
        <mxCell id="ycpoEHU6syWwGk231tpJ-31" value="R02=21" style="ellipse;whiteSpace=wrap;html=1;aspect=fixed;fontSize=16;fontFamily=Times New Roman;fontStyle=0" parent="1" vertex="1">
          <mxGeometry x="440" y="420" width="80" height="80" as="geometry" />
        </mxCell>
        <mxCell id="ycpoEHU6syWwGk231tpJ-32" value="&lt;div style=&quot;font-size: 16px;&quot;&gt;R03=&#39;18&#39;&lt;/div&gt;" style="ellipse;whiteSpace=wrap;html=1;aspect=fixed;fontSize=16;fontFamily=Times New Roman;fontStyle=0" parent="1" vertex="1">
          <mxGeometry x="540" y="420" width="80" height="80" as="geometry" />
        </mxCell>
        <mxCell id="ycpoEHU6syWwGk231tpJ-33" value="R04=&#39;36&#39;" style="ellipse;whiteSpace=wrap;html=1;aspect=fixed;fontSize=16;fontFamily=Times New Roman;fontStyle=0" parent="1" vertex="1">
          <mxGeometry x="630" y="360" width="80" height="80" as="geometry" />
        </mxCell>
        <mxCell id="ycpoEHU6syWwGk231tpJ-34" value="&lt;div style=&quot;font-size: 16px;&quot;&gt;R01=&#39;15&#39;&lt;/div&gt;" style="ellipse;whiteSpace=wrap;html=1;aspect=fixed;fontSize=16;fontFamily=Times New Roman;fontStyle=0" parent="1" vertex="1">
          <mxGeometry x="350" y="360" width="80" height="80" as="geometry" />
        </mxCell>
        <mxCell id="ycpoEHU6syWwGk231tpJ-35" value="" style="endArrow=none;html=1;exitX=0.5;exitY=1;exitDx=0;exitDy=0;entryX=1;entryY=0;entryDx=0;entryDy=0;fontSize=16;fontFamily=Times New Roman;fontStyle=0" parent="1" source="ycpoEHU6syWwGk231tpJ-30" target="ycpoEHU6syWwGk231tpJ-34" edge="1">
          <mxGeometry width="50" height="50" relative="1" as="geometry">
            <mxPoint x="850" y="430" as="sourcePoint" />
            <mxPoint x="900" y="380" as="targetPoint" />
          </mxGeometry>
        </mxCell>
        <mxCell id="ycpoEHU6syWwGk231tpJ-36" value="" style="endArrow=none;html=1;entryX=0.5;entryY=0;entryDx=0;entryDy=0;fontSize=16;fontFamily=Times New Roman;fontStyle=0" parent="1" target="ycpoEHU6syWwGk231tpJ-31" edge="1">
          <mxGeometry width="50" height="50" relative="1" as="geometry">
            <mxPoint x="500" y="330" as="sourcePoint" />
            <mxPoint x="418.28427124747145" y="371.7157287525288" as="targetPoint" />
          </mxGeometry>
        </mxCell>
        <mxCell id="ycpoEHU6syWwGk231tpJ-37" value="" style="endArrow=none;html=1;exitX=0.5;exitY=1;exitDx=0;exitDy=0;entryX=0.5;entryY=0;entryDx=0;entryDy=0;fontSize=16;fontFamily=Times New Roman;fontStyle=0" parent="1" source="ycpoEHU6syWwGk231tpJ-30" target="ycpoEHU6syWwGk231tpJ-32" edge="1">
          <mxGeometry width="50" height="50" relative="1" as="geometry">
            <mxPoint x="535" y="360" as="sourcePoint" />
            <mxPoint x="480" y="420" as="targetPoint" />
          </mxGeometry>
        </mxCell>
        <mxCell id="ycpoEHU6syWwGk231tpJ-38" value="" style="endArrow=none;html=1;exitX=0.5;exitY=1;exitDx=0;exitDy=0;entryX=0;entryY=0;entryDx=0;entryDy=0;fontSize=16;fontFamily=Times New Roman;fontStyle=0" parent="1" source="ycpoEHU6syWwGk231tpJ-30" target="ycpoEHU6syWwGk231tpJ-33" edge="1">
          <mxGeometry width="50" height="50" relative="1" as="geometry">
            <mxPoint x="535" y="360" as="sourcePoint" />
            <mxPoint x="556.3200000000002" y="420" as="targetPoint" />
          </mxGeometry>
        </mxCell>
        <mxCell id="ycpoEHU6syWwGk231tpJ-39" value="&lt;div style=&quot;font-size: 16px;&quot; align=&quot;left&quot;&gt;Public Int nilaiMax = 90&lt;br style=&quot;font-size: 16px;&quot;&gt;&lt;/div&gt;" style="text;html=1;strokeColor=none;fillColor=none;align=left;verticalAlign=middle;whiteSpace=wrap;rounded=0;fontSize=16;fontFamily=Times New Roman;fontStyle=0" parent="1" vertex="1">
          <mxGeometry x="-420" y="90" width="190" height="20" as="geometry" />
        </mxCell>
        <mxCell id="ycpoEHU6syWwGk231tpJ-42" value="" style="endArrow=none;html=1;entryX=0.5;entryY=1;entryDx=0;entryDy=0;exitX=0.5;exitY=0;exitDx=0;exitDy=0;fontSize=16;fontFamily=Times New Roman;fontStyle=0" parent="1" source="ycpoEHU6syWwGk231tpJ-21" target="ycpoEHU6syWwGk231tpJ-9" edge="1">
          <mxGeometry width="50" height="50" relative="1" as="geometry">
            <mxPoint x="80" y="320" as="sourcePoint" />
            <mxPoint x="130" y="270" as="targetPoint" />
          </mxGeometry>
        </mxCell>
        <mxCell id="ycpoEHU6syWwGk231tpJ-43" value="" style="endArrow=none;html=1;entryX=0.5;entryY=1;entryDx=0;entryDy=0;exitX=0.5;exitY=0;exitDx=0;exitDy=0;fontSize=16;fontFamily=Times New Roman;fontStyle=0" parent="1" source="ycpoEHU6syWwGk231tpJ-12" edge="1">
          <mxGeometry width="50" height="50" relative="1" as="geometry">
            <mxPoint x="155" y="320" as="sourcePoint" />
            <mxPoint x="155" y="260" as="targetPoint" />
          </mxGeometry>
        </mxCell>
        <mxCell id="ycpoEHU6syWwGk231tpJ-44" value="" style="endArrow=none;html=1;entryX=0.5;entryY=1;entryDx=0;entryDy=0;exitX=0.5;exitY=0;exitDx=0;exitDy=0;fontSize=16;fontFamily=Times New Roman;fontStyle=0" parent="1" source="ycpoEHU6syWwGk231tpJ-30" edge="1">
          <mxGeometry width="50" height="50" relative="1" as="geometry">
            <mxPoint x="-234.99999999999977" y="320" as="sourcePoint" />
            <mxPoint x="155" y="260" as="targetPoint" />
          </mxGeometry>
        </mxCell>
        <mxCell id="ycpoEHU6syWwGk231tpJ-45" value="" style="endArrow=none;html=1;entryX=0.5;entryY=0;entryDx=0;entryDy=0;exitX=0.5;exitY=1;exitDx=0;exitDy=0;fontSize=16;fontFamily=Times New Roman;fontStyle=0" parent="1" source="ycpoEHU6syWwGk231tpJ-5" target="ycpoEHU6syWwGk231tpJ-9" edge="1">
          <mxGeometry width="50" height="50" relative="1" as="geometry">
            <mxPoint x="-224.99999999999977" y="330" as="sourcePoint" />
            <mxPoint x="165" y="270" as="targetPoint" />
          </mxGeometry>
        </mxCell>
        <mxCell id="txLvjURyc5DpSJmTS5Vq-1" value="L02" style="rounded=0;whiteSpace=wrap;html=1;fontSize=16;fontFamily=Times New Roman;fontStyle=0" vertex="1" parent="1">
          <mxGeometry x="390" y="220" width="70" height="40" as="geometry" />
        </mxCell>
        <mxCell id="txLvjURyc5DpSJmTS5Vq-2" value="" style="endArrow=none;html=1;entryX=0.5;entryY=0;entryDx=0;entryDy=0;exitX=0.5;exitY=1;exitDx=0;exitDy=0;fontSize=16;fontFamily=Times New Roman;fontStyle=0" edge="1" parent="1" target="txLvjURyc5DpSJmTS5Vq-1">
          <mxGeometry width="50" height="50" relative="1" as="geometry">
            <mxPoint x="290" y="150" as="sourcePoint" />
            <mxPoint x="155" y="220" as="targetPoint" />
          </mxGeometry>
        </mxCell>
        <mxCell id="txLvjURyc5DpSJmTS5Vq-3" value="R04=&#39;36&#39;" style="ellipse;whiteSpace=wrap;html=1;aspect=fixed;fontSize=16;fontFamily=Times New Roman;fontStyle=0" vertex="1" parent="1">
          <mxGeometry x="635" y="205" width="70" height="70" as="geometry" />
        </mxCell>
        <mxCell id="txLvjURyc5DpSJmTS5Vq-4" value="" style="endArrow=none;html=1;exitX=1;exitY=0.5;exitDx=0;exitDy=0;entryX=0;entryY=0.5;entryDx=0;entryDy=0;fontSize=16;fontFamily=Times New Roman;fontStyle=0" edge="1" parent="1" source="txLvjURyc5DpSJmTS5Vq-1" target="txLvjURyc5DpSJmTS5Vq-3">
          <mxGeometry width="50" height="50" relative="1" as="geometry">
            <mxPoint x="502.25" y="330" as="sourcePoint" />
            <mxPoint x="641.7157287525379" y="371.71572875253787" as="targetPoint" />
          </mxGeometry>
        </mxCell>
      </root>
    </mxGraphModel>
  </diagram>
</mxfile>
